Coordinates
version=1
nRows=10
nColumns=40
inDegrees=yes

Units are S.I. units (second, meters, Newtons, ...)
Angles are in degrees.

endheader
time	pelvis_tilt	pelvis_list	pelvis_rotation	pelvis_tx	pelvis_ty	pelvis_tz	hip_flexion_r	hip_adduction_r	hip_rotation_r	knee_angle_r	knee_angle_r_beta	ankle_angle_r	subtalar_angle_r	mtp_angle_r	hip_flexion_l	hip_adduction_l	hip_rotation_l	knee_angle_l	knee_angle_l_beta	ankle_angle_l	subtalar_angle_l	mtp_angle_l	lumbar_extension	lumbar_bending	lumbar_rotation	arm_flex_r	arm_add_r	arm_rot_r	elbow_flex_r	pro_sup_r	wrist_flex_r	wrist_dev_r	arm_flex_l	arm_add_l	arm_rot_l	elbow_flex_l	pro_sup_l	wrist_flex_l	wrist_dev_l
      1.28000000	     -3.40293792	     -1.98635127	     -0.82859179	      0.32481453	      0.87921937	      1.15118511	     -3.02942282	      1.81467992	    -15.16956860	    -21.01053676	     -0.36670304	     13.43238431	      8.36761443	     -8.80728330	     33.23685498	      7.94171186	     21.01418493	    -21.27679126	     -0.37135006	      2.21735985	      2.78113801	     -3.87864185	     -2.79500956	      2.05675537	      4.01481282	      5.90540933	    -12.24114411	    -15.05573045	     41.20195414	     89.95437384	      0.00000000	      0.00000000	    -11.37519993	      5.78053987	     14.55955568	     18.90848359	     89.95437384	      0.00000000	      0.00000000
      1.29000000	     -3.53627770	     -2.05127628	     -0.95289031	      0.33471515	      0.87783752	      1.15003479	     -3.40270040	      1.70097654	    -15.03274898	    -21.40715059	     -0.37362526	     13.25853975	      8.15745139	     -8.68830510	     33.61453816	      7.95179447	     21.03050471	    -21.29901610	     -0.37173796	      2.16531481	      2.69499759	     -3.82707492	     -2.60713870	      2.04107882	      4.00735010	      5.98077022	    -12.25410060	    -15.03452164	     41.42771924	     89.95437384	      0.00000000	      0.00000000	    -11.67472873	      5.73923641	     14.48972674	     18.99503501	     89.95437384	      0.00000000	      0.00000000
      1.30000000	     -3.59126188	     -2.13443032	     -1.37502172	      0.34495979	      0.87669155	      1.14921565	     -3.88089823	      1.57330138	    -14.67807208	    -21.71190072	     -0.37894415	     13.34441115	      8.22965603	     -8.68544450	     33.62123047	      8.17795743	     21.51104797	    -21.30490412	     -0.37184072	      2.27747122	      2.54230416	     -3.84465592	     -2.47270171	      2.07411173	      4.37118535	      6.05820541	    -12.31897514	    -15.08717559	     41.44092249	     89.95437384	      0.00000000	      0.00000000	    -11.84594032	      5.68232454	     14.39961480	     18.92486302	     89.95437384	      0.00000000	      0.00000000
      1.31000000	     -3.72231989	     -2.12687352	     -1.56351711	      0.35546582	      0.87531166	      1.14807479	     -4.22071299	      1.36080190	    -14.39239682	    -22.21211858	     -0.38767460	     13.01561724	      7.98028178	     -8.51968780	     33.75350789	      8.10302791	     21.13301410	    -21.65436580	     -0.37793998	      2.14044253	      2.51123013	     -3.76309631	     -2.19947923	      1.97167293	      4.42163865	      5.94430075	    -12.31538286	    -15.04596431	     41.65740675	     89.95437384	      0.00000000	      0.00000000	    -12.19155115	      5.68672145	     14.35304133	     19.13430426	     89.95437384	      0.00000000	      0.00000000
      1.32000000	     -3.26621144	     -2.09173041	     -2.37492921	      0.36660003	      0.87493973	      1.14774821	     -5.34779313	      1.11318584	    -13.17187178	    -22.36594626	     -0.39035940	     12.96717315	      8.48695816	     -8.62201053	     33.16415859	      8.44314738	     21.64246393	    -22.68378736	     -0.39590678	      2.85399228	      3.82377226	     -3.72088015	     -2.59339746	      1.82905634	      5.26296117	      5.78114742	    -12.29406187	    -15.35167622	     41.88015681	     89.95437384	      0.00000000	      0.00000000	    -12.19829620	      5.66295880	     14.28528114	     18.98670821	     89.95437384	      0.00000000	      0.00000000
      1.33000000	     -3.07707705	     -2.12168309	     -2.67823208	      0.37794159	      0.87410567	      1.14679102	     -6.14042633	      0.91746373	    -12.65690569	    -22.69833981	     -0.39616076	     12.73253284	      8.42482151	     -8.56687383	     32.87726067	      8.47740055	     21.26350511	    -23.72580565	     -0.41409343	      2.98480136	      4.97768404	     -3.56034363	     -2.60504864	      1.74673618	      5.47286170	      5.60276435	    -12.23120306	    -15.48413279	     41.93442173	     89.95437384	      0.00000000	      0.00000000	    -12.33107717	      5.68835287	     14.26138453	     18.90433749	     89.95437384	      0.00000000	      0.00000000
      1.34000000	     -3.05695292	     -2.11187457	     -2.84491951	      0.38903589	      0.87309283	      1.14528604	     -6.73692133	      0.73783599	    -12.00431469	    -22.97192773	     -0.40093577	     12.08802494	      7.88921409	     -8.64469196	     32.65280691	      7.96876553	     19.44229628	    -24.54229465	     -0.42834385	      3.41335570	      8.39638354	     -3.05528152	     -2.45862815	      1.65842698	      5.60977788	      5.26280048	    -12.19811545	    -15.64066353	     42.14677299	     89.95437384	      0.00000000	      0.00000000	    -12.44602761	      5.68396096	     14.32442045	     18.96089216	     89.95437384	      0.00000000	      0.00000000
      1.35000000	     -3.03499532	     -2.03685538	     -3.08594566	      0.40047093	      0.87202498	      1.14382498	     -7.22416184	      0.41608563	    -11.40327064	    -23.50274337	     -0.41020026	     11.62196570	      7.65618881	     -8.70165396	     32.44311749	      7.65335772	     18.66253896	    -25.62337645	     -0.44721228	      3.39923498	     10.46566909	     -2.46804036	     -2.26001420	      1.48787523	      5.77164364	      4.88483921	    -12.15108497	    -15.75275084	     42.28376593	     89.95437384	      0.00000000	      0.00000000	    -12.56080901	      5.69252338	     14.40846383	     19.00476125	     89.95437384	      0.00000000	      0.00000000
      1.36000000	     -2.98140048	     -1.95787862	     -3.18281221	      0.41199098	      0.87104583	      1.14237002	     -7.71532037	      0.10371250	    -11.03594187	    -24.09089026	     -0.42046535	     11.05497602	      7.40846404	     -8.52637784	     32.40170239	      7.54255709	     18.62665676	    -26.90860165	     -0.46964370	      2.63779507	     11.07398220	     -2.17361230	     -2.08226032	      1.26999657	      5.75450811	      4.56872225	    -12.02770708	    -15.86499579	     42.25354574	     89.95437384	      0.00000000	      0.00000000	    -12.67192012	      5.75973176	     14.44662239	     19.08570846	     89.95437384	      0.00000000	      0.00000000
      1.37000000	     -3.24650125	     -1.86059557	     -3.30767635	      0.42283248	      0.86999208	      1.14079022	     -7.68374571	     -0.13288418	    -10.16427371	    -24.85820215	     -0.43385747	     10.24265860	      6.53937394	     -8.39999212	     32.62961958	      7.22873925	     17.91818559	    -27.60750277	     -0.48184182	      1.98662887	     13.31205044	     -1.28244091	     -1.62730830	      1.06936453	      5.84959926	      4.19224256	    -11.83514925	    -16.26315978	     42.17451129	     89.95437384	      0.00000000	      0.00000000	    -12.49891202	      5.76994598	     14.82368912	     18.87840810	     89.95437384	      0.00000000	      0.00000000
